<svg width="329" height="116" viewBox="0 0 329 116" fill="none" xmlns="http://www.w3.org/2000/svg">
<path d="M109.957 29.5494C109.957 13.2388 96.7348 0.0164795 80.4243 0.0164795C64.1137 0.0164795 50.8914 13.2388 50.8914 29.5494V85.5688C50.8914 101.879 64.1137 115.102 80.4243 115.102C96.7348 115.102 109.957 101.879 109.957 85.5688V29.5494Z" fill="#DE3C4B"/>
<path d="M80.492 0.0164795H29.4652C13.192 0.0164795 0 13.2047 0 29.4732C0 45.7417 13.192 58.93 29.4652 58.93H80.492C96.7651 58.93 109.957 45.7417 109.957 29.4732C109.957 13.2047 96.7651 0.0164795 80.492 0.0164795Z" fill="#FFCD1E"/>
<path d="M79.5273 0.0168022C63.6354 0.490683 50.8914 13.5224 50.8914 29.5328V58.9303H80.492C96.7562 58.9303 109.957 45.7463 109.957 29.4651V29.3297C109.873 15.164 99.8195 3.38474 86.4493 0.609153C84.5199 0.219894 82.5398 -0.00012207 80.492 -0.00012207H79.5273V0.0168022Z" fill="#FF9201"/>
<path d="M169.867 14.4435V19.8762H158.358V51.7277H152.232V19.8762H140.723V14.4435H169.867Z" fill="#0D133F"/>
<path d="M186.435 29.8267H183.88C181.494 29.8267 179.784 30.6052 178.718 32.1453C177.652 33.6854 177.127 35.6487 177.127 38.035V51.7267H171.373V24.4448H176.484L177.127 28.5405C177.906 27.2542 178.921 26.2557 180.157 25.5279C181.392 24.8002 183.067 24.4279 185.166 24.4279H186.452V29.8098L186.435 29.8267Z" fill="#0D133F"/>
<path d="M215.155 51.727H212.125C210.348 51.727 209.079 51.3547 208.284 50.61C207.505 49.8653 207.116 48.7822 207.116 47.3605C205.051 50.4915 202.056 52.0485 198.112 52.0485C195.049 52.0485 192.612 51.3377 190.767 49.9161C188.922 48.4944 187.991 46.5481 187.991 44.0603C187.991 41.2508 188.99 39.1015 190.97 37.5952C192.967 36.0889 195.861 35.3273 199.652 35.3273H206.524V33.6688C206.524 32.1456 205.999 30.9439 204.933 30.0808C203.866 29.2177 202.394 28.7776 200.515 28.7776C198.84 28.7776 197.469 29.133 196.386 29.8777C195.303 30.6055 194.66 31.5701 194.44 32.7718H188.787C189.075 30.03 190.276 27.9145 192.409 26.4082C194.541 24.902 197.334 24.1404 200.769 24.1404C204.425 24.1404 207.251 24.9866 209.248 26.6959C211.229 28.4053 212.227 30.8593 212.227 34.0411V44.8049C212.227 46.0912 212.836 46.7174 214.038 46.7174H215.155V51.727ZM199.382 39.5753C197.604 39.5753 196.234 39.9308 195.286 40.6077C194.321 41.3016 193.847 42.3171 193.847 43.671C193.847 44.8388 194.304 45.7866 195.201 46.4974C196.098 47.2082 197.334 47.5636 198.908 47.5636C201.294 47.5636 203.139 46.9205 204.476 45.6512C205.813 44.3649 206.49 42.6725 206.524 40.54V39.5753H199.382Z" fill="#0D133F"/>
<path d="M224.684 16.9986C224.684 17.9971 224.345 18.8264 223.668 19.4695C222.991 20.1296 222.162 20.4511 221.163 20.4511C220.165 20.4511 219.335 20.1296 218.659 19.4695C217.982 18.8095 217.643 17.9802 217.643 16.9986C217.643 16.017 217.982 15.1708 218.659 14.5276C219.335 13.8676 220.165 13.546 221.163 13.546C222.162 13.546 222.991 13.8676 223.668 14.5276C224.345 15.1877 224.684 16.017 224.684 16.9986ZM224.04 24.4622V51.7272H218.286V24.4453H224.04V24.4622Z" fill="#0D133F"/>
<path d="M255.061 36.6984V51.7272H249.256V37.02C249.256 34.4306 248.698 32.4504 247.597 31.1134C246.497 29.7594 244.873 29.0825 242.757 29.0825C240.489 29.0825 238.695 29.8779 237.409 31.4519C236.106 33.0258 235.463 35.2091 235.463 37.9847V51.7272H229.708V24.4452H234.718L235.361 28.0162C237.426 25.4268 240.337 24.1237 244.094 24.1237C247.327 24.1237 249.967 25.1222 251.998 27.1023C254.046 29.0994 255.061 32.2812 255.061 36.6984Z" fill="#0D133F"/>
<path d="M266.677 16.9986C266.677 17.9971 266.338 18.8264 265.662 19.4695C264.985 20.1296 264.155 20.4511 263.157 20.4511C262.158 20.4511 261.329 20.1296 260.652 19.4695C259.975 18.8095 259.636 17.9802 259.636 16.9986C259.636 16.017 259.975 15.1708 260.652 14.5276C261.329 13.8676 262.158 13.546 263.157 13.546C264.155 13.546 264.985 13.8676 265.662 14.5276C266.338 15.1877 266.677 16.017 266.677 16.9986ZM266.034 24.4622V51.7272H260.28V24.4453H266.034V24.4622Z" fill="#0D133F"/>
<path d="M297.034 36.6984V51.7272H291.229V37.02C291.229 34.4306 290.67 32.4504 289.57 31.1134C288.47 29.7594 286.846 29.0825 284.73 29.0825C282.462 29.0825 280.668 29.8779 279.382 31.4519C278.079 33.0258 277.436 35.2091 277.436 37.9847V51.7272H271.681V24.4452H276.691L277.334 28.0162C279.399 25.4268 282.31 24.1237 286.067 24.1237C289.3 24.1237 291.94 25.1222 293.971 27.1023C296.019 29.0994 297.034 32.2812 297.034 36.6984Z" fill="#0D133F"/>
<path d="M328.738 50.61C328.738 54.4518 327.604 57.4135 325.336 59.5291C323.068 61.6446 319.548 62.6939 314.792 62.6939C311.103 62.6939 308.09 61.8646 305.789 60.223C303.487 58.5644 302.201 56.2288 301.947 53.2163H307.803C308.158 54.7395 308.97 55.9242 310.257 56.7535C311.543 57.5828 313.185 58.0059 315.215 58.0059C320.428 58.0059 323.051 55.4673 323.051 50.39V47.3605C321.054 50.3392 318.093 51.8285 314.149 51.8285C311.661 51.8285 309.444 51.27 307.498 50.153C305.552 49.036 304.012 47.4282 302.912 45.3634C301.811 43.2818 301.253 40.8277 301.253 37.9845C301.253 35.1412 301.811 32.8395 302.928 30.7409C304.045 28.6422 305.586 27.0175 307.532 25.8667C309.478 24.7158 311.695 24.1404 314.132 24.1404C316.197 24.1404 317.974 24.5466 319.463 25.3589C320.953 26.1713 322.171 27.2883 323.085 28.7099L323.728 24.445H328.738V50.61ZM323.034 38.086C323.034 35.395 322.307 33.1949 320.851 31.5024C319.396 29.81 317.483 28.9638 315.097 28.9638C312.711 28.9638 310.798 29.7931 309.343 31.4686C307.887 33.1441 307.16 35.3104 307.16 37.9675C307.16 40.6246 307.887 42.791 309.343 44.4665C310.798 46.142 312.711 46.9713 315.097 46.9713C317.483 46.9713 319.396 46.142 320.851 44.5003C322.307 42.8417 323.034 40.7093 323.034 38.086Z" fill="#0D133F"/>
<path d="M167.563 65.4055C169.51 66.3871 171.033 67.7749 172.099 69.5689C173.165 71.3628 173.69 73.4445 173.69 75.8309C173.69 78.2172 173.165 80.2989 172.099 82.0928C171.033 83.8868 169.527 85.2746 167.563 86.2562C165.6 87.2378 163.349 87.7286 160.794 87.7286H152.213V101.268H146.086V63.9669H160.794C163.349 63.9669 165.6 64.4577 167.563 65.4393V65.4055ZM160.269 82.3806C162.469 82.3806 164.212 81.7882 165.516 80.6035C166.819 79.4188 167.462 77.8279 167.462 75.8309C167.462 73.8338 166.819 72.2091 165.549 71.0413C164.28 69.8735 162.537 69.2812 160.337 69.2812H152.247V82.3806H160.286H160.269Z" fill="#0D133F"/>
<path d="M177.246 94.9217C176.095 92.8062 175.52 90.3691 175.52 87.5935C175.52 84.8179 176.095 82.4316 177.246 80.3161C178.397 78.2005 180.039 76.5589 182.154 75.3911C184.27 74.2233 186.69 73.631 189.432 73.631C192.174 73.631 194.594 74.2233 196.709 75.3911C198.825 76.5589 200.45 78.2005 201.617 80.3161C202.768 82.4316 203.344 84.8518 203.344 87.5935C203.344 90.3353 202.768 92.8062 201.617 94.9217C200.466 97.0373 198.825 98.662 196.709 99.8298C194.594 100.981 192.174 101.556 189.432 101.556C186.69 101.556 184.27 100.981 182.154 99.8298C180.039 98.6789 178.414 97.0373 177.246 94.9217ZM197.471 87.5935C197.471 84.9364 196.726 82.7532 195.254 81.0607C193.781 79.3683 191.835 78.5221 189.415 78.5221C186.995 78.5221 185.065 79.3683 183.61 81.0607C182.154 82.7532 181.427 84.9195 181.427 87.5935C181.427 90.2676 182.154 92.4339 183.61 94.1263C185.065 95.8187 186.995 96.665 189.415 96.665C191.835 96.665 193.781 95.8187 195.254 94.1263C196.726 92.4339 197.471 90.2676 197.471 87.5935Z" fill="#0D133F"/>
<path d="M214.359 66.506C214.359 67.5046 214.021 68.3338 213.344 68.977C212.667 69.637 211.837 69.9586 210.839 69.9586C209.84 69.9586 209.011 69.637 208.334 68.977C207.657 68.3169 207.319 67.4876 207.319 66.506C207.319 65.5244 207.657 64.6782 208.334 64.0351C209.011 63.375 209.84 63.0535 210.839 63.0535C211.837 63.0535 212.667 63.375 213.344 64.0351C214.021 64.6951 214.359 65.5244 214.359 66.506ZM213.716 73.9696V101.252H207.962V73.9696H213.716Z" fill="#0D133F"/>
<path d="M244.722 86.2057V101.235H238.917V86.5273C238.917 83.9379 238.359 81.9577 237.259 80.6207C236.159 79.2668 234.534 78.5898 232.418 78.5898C230.15 78.5898 228.356 79.3852 227.07 80.9592C225.767 82.5332 225.124 84.7164 225.124 87.492V101.235H219.37V73.9525H224.379L225.022 77.5236C227.087 74.9342 229.998 73.631 233.755 73.631C236.988 73.631 239.628 74.6295 241.659 76.6097C243.707 78.6067 244.722 81.7885 244.722 86.2057Z" fill="#0D133F"/>
<path d="M246.958 79.0132V73.9528H251.697V66.3369H257.502V73.9528H264.052V79.0132H257.502V93.2466C257.502 94.3128 257.722 95.0744 258.145 95.5144C258.569 95.9544 259.296 96.1745 260.329 96.1745H264.695V101.235H259.161C256.572 101.235 254.676 100.626 253.491 99.4239C252.307 98.2223 251.714 96.3437 251.714 93.822V79.0132H246.975H246.958Z" fill="#0D133F"/>
</svg>
